<?xml version="1.0" standalone="no"?>
<!DOCTYPE svg PUBLIC "-//W3C//DTD SVG 20010904//EN" "http://www.w3.org/TR/2001/REC-SVG-20010904/DTD/svg10.dtd">
<svg version="1.0" xmlns="http://www.w3.org/2000/svg"
    width="640.000000pt" height="640.000000pt" viewBox="0 0 640.000000 640.000000"
    preserveAspectRatio="xMidYMid meet">

    <g transform="translate(0.000000,640.000000) scale(0.100000,-0.100000)"
        fill="red" stroke="none">
        <path
            d="M110 5729 c0 -319 3 -578 8 -576 257 157 842 488 928 526 343 151
696 231 1024 231 510 0 964 -174 1402 -537 l77 -64 59 56 c96 91 170 143 287
200 338 167 704 166 1041 -1 550 -274 790 -936 545 -1504 -80 -185 -245 -388
-406 -497 -134 -90 -306 -161 -452 -186 l-78 -13 2 -50 c0 -27 4 -137 8 -244
19 -493 -92 -863 -351 -1170 -116 -138 -385 -365 -594 -501 -58 -38 -494 -293
-970 -568 -766 -442 -866 -498 -878 -483 -6 9 -375 666 -819 1461 -443 796
-812 1455 -820 1466 -11 16 -13 -238 -13 -1578 l0 -1597 3100 0 3100 0 0 3105
0 3105 -3100 0 -3100 0 0 -581z" />
        <path
            d="M4088 5310 l-136 -69 -17 -58 c-32 -110 -70 -174 -164 -272 l-89 -95
75 -143 75 -143 29 16 c46 23 105 81 161 156 28 38 55 65 59 61 12 -13 329
-629 329 -640 0 -5 -59 -40 -130 -77 l-131 -68 68 -127 c38 -70 75 -138 83
-150 15 -22 15 -22 475 225 253 135 462 248 464 250 3 3 -104 209 -140 270
l-19 32 -147 -79 c-81 -43 -149 -79 -152 -79 -3 0 -129 239 -280 530 -150 292
-274 530 -275 529 0 0 -63 -31 -138 -69z" />
        <path
            d="M1890 4513 c-122 -11 -141 -19 -416 -170 l-191 -106 97 -176 c53 -97
296 -540 540 -986 244 -445 447 -814 451 -819 7 -8 312 169 481 281 112 74
160 124 195 200 119 261 59 648 -169 1083 -115 220 -257 397 -408 512 -164
125 -397 198 -580 181z" />
    </g>
</svg>